<svg width="80" height="80" viewBox="0 0 80 80" fill="none" xmlns="http://www.w3.org/2000/svg">
<circle cx="40" cy="40" r="40" fill="white"/>
<mask id="mask0_250_2346" style="mask-type:luminance" maskUnits="userSpaceOnUse" x="13" y="13" width="57" height="54">
<path d="M69.9897 13.3334H13.3335V66.2578H69.9897V13.3334Z" fill="white"/>
</mask>
<g mask="url(#mask0_250_2346)">
<path d="M44.3768 56.1765L37.4116 41.2523L33.6736 46.38V56.1772H28.405V25.2231H33.6736L33.6529 38.1018L33.7082 38.0465L43.7134 25.2224L49.9765 25.2231L41.8337 36.0562L51.3967 56.1765H44.3768ZM62.6741 39.7949C58.6729 39.7949 55.418 36.5054 55.418 32.4634C55.4152 30.0661 56.581 27.818 58.5423 26.44C52.9633 18.2682 43.0203 14.5392 33.4428 17.1321C21.0755 20.4803 13.7088 33.3707 17.0224 45.8666C20.3361 58.3624 33.1028 65.8031 45.4639 62.4569C52.0711 60.6671 57.5354 56.0432 60.4538 49.7697C60.6148 49.4186 60.9099 49.147 61.2727 49.0144C61.6355 48.8824 62.0363 48.901 62.3853 49.0662C63.1116 49.4165 63.4219 50.2859 63.0812 51.0171C59.7986 58.0735 53.6502 63.2765 46.2151 65.2896C44.0133 65.8874 41.7418 66.1908 39.4599 66.1914C27.9254 66.1914 17.3424 58.4045 14.2188 46.6253C10.4905 32.5684 18.7777 18.0664 32.6916 14.2994C43.6678 11.3299 55.0559 15.7327 61.263 25.2701C61.7274 25.1775 62.2008 25.1305 62.6741 25.1305C66.6754 25.1305 69.931 28.4199 69.931 32.462C69.931 36.5054 66.6754 39.7949 62.6741 39.7949ZM62.6741 28.0634C60.2734 28.0634 58.3204 30.037 58.3204 32.4627C58.3204 34.8883 60.2734 36.8613 62.6741 36.8613C65.0749 36.8613 67.0285 34.8883 67.0285 32.4627C67.0285 30.037 65.0756 28.0634 62.6741 28.0634Z" fill="black"/>
</g>
</svg>
