<svg width="80" height="80" viewBox="0 0 80 80" fill="none" xmlns="http://www.w3.org/2000/svg">
<circle cx="40" cy="40" r="40" fill="white"/>
<mask id="mask0_250_2347" style="mask-type:luminance" maskUnits="userSpaceOnUse" x="16" y="20" width="48" height="42">
<path d="M63.8982 20H16V61.6239H63.8982V20Z" fill="white"/>
</mask>
<g mask="url(#mask0_250_2347)">
<path d="M58.4619 61.5594H53.3734C52.4207 61.5594 51.6485 60.7872 51.6485 59.8345C51.6485 58.8817 52.4207 58.1096 53.3734 58.1096H58.4652C59.5554 58.1096 60.4455 57.1744 60.4455 56.0262V25.5434C60.4455 24.3946 59.5554 23.4594 58.4652 23.4594H21.4218C20.3316 23.4594 19.4415 24.3946 19.4415 25.5434V56.0256C19.4415 57.1744 20.3282 58.1089 21.4218 58.1089H42.134C43.0867 58.1089 43.8589 58.8811 43.8589 59.8338C43.8589 60.7865 43.0867 61.5587 42.134 61.5587H21.4218C18.4274 61.5594 15.9917 59.0758 15.9917 56.0262V25.5434C15.9917 22.4905 18.4274 20.0103 21.4218 20.0103H58.4619C61.4562 20.0103 63.8919 22.4938 63.8919 25.5441V56.0262C63.8919 59.0758 61.4569 61.5594 58.4619 61.5594Z" fill="black"/>
</g>
<path d="M33.6587 34.5478C33.6587 32.6504 35.0042 31.8742 36.6463 32.8229L47.4437 39.0601C49.0891 40.0088 49.0891 41.5612 47.4437 42.5099L36.6463 48.7472C35.0042 49.6959 33.6587 48.9196 33.6587 47.0223V34.5478Z" fill="black"/>
</svg>
