<svg width="80" height="80" viewBox="0 0 80 80" fill="none" xmlns="http://www.w3.org/2000/svg">
<circle cx="40" cy="40" r="40" fill="white"/>
<path d="M64.569 29.6192C63.2256 26.4432 61.3037 23.5917 58.8547 21.1434C56.4057 18.6951 53.5548 16.7725 50.3789 15.429C47.091 14.0385 43.5991 13.3333 39.9995 13.3333C36.4006 13.3333 32.9079 14.0385 29.6194 15.4297C26.4434 16.7732 23.5919 18.6958 21.1436 21.1441C18.6953 23.5924 16.7727 26.4439 15.4292 29.6199C14.0386 32.9077 13.3335 36.4004 13.3335 39.9993C13.3335 43.5982 14.0386 47.0908 15.4299 50.3794C16.7734 53.5553 18.696 56.4062 21.1443 58.8552C23.5926 61.3042 26.4441 63.2261 29.6201 64.5688C32.9086 65.9601 36.4006 66.6653 40.0002 66.6653C43.5991 66.6653 47.0917 65.9601 50.3803 64.5688C53.5562 63.2261 56.4071 61.3035 58.8561 58.8552C61.3051 56.4069 63.227 53.5553 64.5704 50.3794C65.9617 47.0908 66.6668 43.5982 66.6668 39.9993C66.6654 36.4004 65.9603 32.9077 64.569 29.6192ZM61.6527 49.1457C60.469 51.9438 58.7744 54.4575 56.6161 56.6159C54.457 58.7743 51.944 60.4689 49.1459 61.6525C46.25 62.8777 43.1726 63.4984 39.9995 63.4984C36.8263 63.4984 33.7489 62.877 30.853 61.6525C28.0549 60.4689 25.5412 58.7743 23.3828 56.6159C21.2238 54.4568 19.5299 51.9438 18.3462 49.1457C17.1217 46.2499 16.5003 43.1724 16.5003 39.9993C16.5003 36.8261 17.1217 33.7487 18.3462 30.8528C19.5299 28.0548 21.2238 25.541 23.3828 23.3827C25.5412 21.2243 28.0549 19.5297 30.853 18.346C33.7496 17.1215 36.8263 16.5001 39.9995 16.5001C43.1726 16.5001 46.25 17.1215 49.1459 18.346C51.944 19.5297 54.4577 21.2243 56.6161 23.3827C58.7744 25.541 60.469 28.0548 61.6527 30.8528C62.8779 33.7487 63.4986 36.8261 63.4986 39.9993C63.4986 43.1724 62.8779 46.2499 61.6527 49.1457Z" fill="black"/>
<path d="M56.3757 38.6428H50.7071L48.6297 32.0361C48.5284 31.6561 48.1378 31.4309 47.7578 31.5323L46.5417 31.547C46.1744 31.4485 45.8851 31.7561 45.7866 32.1234L42.7613 46.645L38.6697 26.4274C38.5712 26.0593 38.1933 25.8412 37.8253 25.9397C37.8253 25.9397 36.7964 25.9594 36.3073 25.9594C35.8175 25.9594 35.6662 26.445 35.6662 26.445L32.6106 42.4233L31.5247 39.0355C31.4205 38.6541 31.0595 38.6055 30.6338 38.6196L23.6253 38.6421C23.2319 38.6421 22.9131 38.9609 22.9131 39.3543V40.7787C22.9131 41.172 23.2319 41.4908 23.6253 41.4908H29.2629L31.3502 48.0039C31.4543 48.3846 31.8533 48.6112 32.2418 48.5092L33.3495 48.4944C33.7253 48.5936 34.156 48.2854 34.2573 47.9159L37.3875 33.1959L41.5163 53.5705C41.6149 53.9385 41.9928 54.1567 42.3608 54.0582C42.3608 54.0582 43.1131 54.0455 43.5586 54.0455C44.0033 54.0455 44.0716 53.2214 44.0716 53.2214L47.3996 37.5999L48.4622 40.9778C48.5643 41.3571 48.9541 41.583 49.3341 41.481L56.3792 41.4908C56.7726 41.4908 57.0914 41.172 57.0914 40.7787V39.3543C57.0872 38.9616 56.7691 38.6428 56.3757 38.6428Z" fill="black"/>
</svg>
