<svg width="80" height="80" viewBox="0 0 80 80" fill="none" xmlns="http://www.w3.org/2000/svg">
<path d="M80 40C80 62.0914 62.0914 80 40 80C17.9086 80 0 62.0914 0 40C0 17.9086 17.9086 0 40 0C62.0914 0 80 17.9086 80 40Z" fill="white"/>
<path d="M60.7039 31.8148H48.1853V19.2963C48.1853 18.7666 47.752 18.3333 47.2224 18.3333H19.2965C18.7668 18.3333 18.3335 18.7666 18.3335 19.2963V47.2222C18.3335 47.7518 18.7668 48.1852 19.2965 48.1852H31.815V60.7037C31.815 61.2333 32.2483 61.6666 32.7779 61.6666H60.7039C61.2335 61.6666 61.6668 61.2333 61.6668 60.7037V32.7778C61.6668 32.2481 61.2335 31.8148 60.7039 31.8148ZM31.815 32.7778V44.0926H22.4261V22.4259H44.0928V31.8148H32.7779C32.2483 31.8148 31.815 32.2481 31.815 32.7778ZM44.0928 35.9074V44.0926H35.9076V35.9074H44.0928ZM57.5742 57.5741H35.9076V48.1852H47.2224C47.752 48.1852 48.1853 47.7518 48.1853 47.2222V35.9074H57.5742V57.5741Z" fill="black"/>
</svg>
