<svg width="80" height="80" viewBox="0 0 80 80" fill="none" xmlns="http://www.w3.org/2000/svg">
<circle cx="40" cy="40" r="40" transform="matrix(-1 0 0 1 80 0)" fill="white"/>
<mask id="mask0_250_2418" style="mask-type:luminance" maskUnits="userSpaceOnUse" x="12" y="12" width="56" height="56">
<path d="M66.9214 13.3334V13.0834H66.6714H13.3335H13.0835V13.3334V66.744V66.994H13.3335H66.6714H66.9214V66.744V13.3334Z" fill="white" stroke="white" stroke-width="0.5"/>
</mask>
<g mask="url(#mask0_250_2418)">
<path d="M27.1257 24.7556C27.148 24.7198 27.1698 24.6838 27.1916 24.6479C27.217 24.606 27.2424 24.5642 27.2684 24.5227L27.0562 24.3905C29.0618 21.1724 31.6574 18.3668 34.7036 16.1203C30.3891 17.0747 26.4986 19.1718 23.3668 22.0774L27.0566 24.3899C27.0497 24.4009 27.0424 24.4127 27.0347 24.425M27.1257 24.7556L27.2413 24.5339C27.1723 24.4979 27.1034 24.4616 27.0347 24.425M27.1257 24.7556L26.9134 24.6236C26.9308 24.5956 26.9524 24.56 26.9749 24.523C26.995 24.49 27.0157 24.4559 27.0347 24.425M27.1257 24.7556L27.0347 24.425M50.4717 15.2054L50.3743 15.4357L50.4717 15.2054C47.1518 13.8017 43.6263 13.0896 39.9932 13.0896C36.36 13.0896 32.8338 13.8017 29.5146 15.2054L29.612 15.4357L29.5146 15.2054C26.3091 16.5612 23.4303 18.5028 20.9585 20.9739C18.4867 23.445 16.5458 26.3246 15.1901 29.53L15.1901 29.53C13.7863 32.8499 13.0742 36.3753 13.0742 40.0085C13.0742 43.6417 13.7863 47.1672 15.1901 50.4871L15.4203 50.3897L15.1901 50.4871C16.5458 53.6925 18.4874 56.572 20.9585 59.0432C23.4296 61.5143 26.3092 63.4559 29.5146 64.8116C32.8345 66.2161 36.36 66.9275 39.9932 66.9275C43.6256 66.9275 47.1518 66.2154 50.4717 64.8116L50.3743 64.5814L50.4717 64.8116C53.6771 63.4559 56.556 61.515 59.0278 59.0432C61.4996 56.5713 63.4405 53.6925 64.7962 50.4871C66.2 47.1679 66.9121 43.6417 66.9121 40.0085C66.9121 36.3753 66.2 32.8499 64.7963 29.53L64.566 29.6273L64.7962 29.53C63.4405 26.3246 61.4996 23.4457 59.0278 20.9739C56.556 18.502 53.6771 16.5611 50.4717 15.2054ZM29.4633 51.5826L29.5511 51.8167L29.4633 51.5826C28.9091 51.7905 28.3615 52.0143 27.8203 52.2544C26.1627 48.8777 25.1864 45.1461 25.0352 41.243H38.8182V49.7111C35.5948 49.8327 32.4544 50.4607 29.4633 51.5826ZM50.4621 51.6018L50.4619 51.6017C47.5008 50.4842 44.3936 49.8517 41.2276 49.7164V41.243H54.5212C54.3719 45.143 53.4265 48.8024 51.8008 52.1506C51.3606 51.9583 50.9151 51.7732 50.4621 51.6018ZM52.5009 24.39L52.5008 24.3898C50.4583 21.1114 47.8029 18.2617 44.6837 15.9953C49.2075 16.8776 53.2898 19.0104 56.5552 22.018C55.3093 22.9705 53.9837 23.8142 52.5928 24.5389C52.5623 24.4891 52.5317 24.4394 52.5009 24.39ZM27.0919 55.9707L27.0921 55.971C28.9693 58.9693 31.361 61.6087 34.1533 63.7691C29.9965 62.7472 26.2539 60.6598 23.2329 57.8139C24.3595 56.9481 25.5518 56.1717 26.7989 55.4914C26.8951 55.6521 26.9928 55.8119 27.0919 55.9707ZM52.4649 55.9703L52.4652 55.9699C52.5885 55.772 52.7094 55.5731 52.8282 55.3731C54.1834 56.0967 55.4749 56.9332 56.6897 57.874C53.5304 60.8284 49.5905 62.9568 45.217 63.9115C48.0894 61.7251 50.5457 59.0356 52.4649 55.9703ZM64.4278 38.8342H56.9654C56.7728 34.6096 55.6904 30.4656 53.7926 26.7136C55.3704 25.8856 56.8719 24.9256 58.286 23.8204C61.8712 27.8564 64.1429 33.0566 64.4278 38.8342ZM41.2276 27.6137V16.6412C45.0438 18.8987 48.1114 21.9733 50.3716 25.5764C47.4801 26.7686 44.4063 27.4642 41.2276 27.6137ZM38.8182 27.6206C35.5185 27.4814 32.3055 26.7495 29.3054 25.4812C31.6464 21.7836 34.8252 18.6478 38.8182 16.3891V27.6206ZM29.209 28.1106C29.3077 28.1471 29.4059 28.1835 29.5036 28.2199C32.4828 29.3329 35.5969 29.956 38.8189 30.0767V38.8342H25.0484C25.2439 34.8695 26.2905 31.0633 28.0374 27.6569C28.4248 27.8206 28.82 27.9668 29.209 28.1106ZM38.8182 52.1678V63.9154C34.7027 61.5735 31.4074 58.2906 29.0483 54.4165C32.121 53.0806 35.4011 52.3105 38.8182 52.1678ZM41.2276 63.6626V52.1741C44.4717 52.3284 47.663 53.0614 50.6281 54.3179C48.3489 58.0974 45.1668 61.3191 41.2276 63.6626ZM41.2276 38.8342V30.0713L40.9776 29.8308C44.1993 29.7189 47.3351 29.0939 50.3345 27.9668L50.4223 28.2009C50.4223 28.2009 50.4224 28.2009 50.4224 28.2008C50.5232 28.163 50.6244 28.1256 50.7259 28.088C51.0117 27.9823 51.2998 27.8757 51.5862 27.7581C53.3015 31.1369 54.3165 34.8717 54.5088 38.8342H41.2276ZM22.5916 38.8335H15.5592C15.842 33.113 18.0914 27.8997 21.6428 23.8722C22.9632 24.8985 24.3602 25.8183 25.826 26.6055C23.8901 30.3891 22.7866 34.5496 22.5916 38.8335ZM21.5231 56.0409C18.0407 52.033 15.8391 46.9025 15.5593 41.243H22.5802C22.7317 45.4677 23.7703 49.5758 25.6218 53.3353C24.1868 54.1201 22.8184 55.0248 21.5231 56.0409ZM58.405 56.1044C57.0235 55.0127 55.5474 54.0453 53.9947 53.2147C55.809 49.4901 56.8261 45.4639 56.9762 41.2437H64.4265C64.1464 46.9593 61.9212 52.0879 58.405 56.1044Z" fill="black" stroke="black" stroke-width="0.5"/>
</g>
</svg>
