<svg width="80" height="80" viewBox="0 0 80 80" fill="none" xmlns="http://www.w3.org/2000/svg">
<circle cx="40" cy="40" r="40" transform="matrix(-1 0 0 1 80 0)" fill="white"/>
<mask id="mask0_250_2345" style="mask-type:luminance" maskUnits="userSpaceOnUse" x="19" y="15" width="43" height="49">
<path d="M61.0449 15H19.7744V63.1896H61.0449V15Z" fill="white"/>
</mask>
<g mask="url(#mask0_250_2345)">
<path d="M40.3823 39.0807C43.3163 39.0084 45.7524 38.005 47.683 36.0744C49.6136 34.1438 50.6171 31.7112 50.6893 28.7736C50.6171 25.8396 49.6136 23.4034 47.683 21.4728C45.7518 19.5417 43.3198 18.5388 40.3823 18.4666C37.4482 18.5388 35.0121 19.5417 33.0815 21.4728C31.1509 23.4034 30.1474 25.836 30.0752 28.7736C30.1474 31.7077 31.1509 34.1438 33.0815 36.0744C35.0121 38.0056 37.4441 39.0084 40.3823 39.0807ZM40.3823 42.5161C36.4829 42.4099 33.2429 41.0664 30.6659 38.4894C28.0894 35.9123 26.7495 32.673 26.6391 28.773C26.746 24.8737 28.0894 21.6337 30.6659 19.0567C33.2429 16.4796 36.4829 15.1397 40.3823 15.0299C44.2816 15.1368 47.5216 16.4802 50.098 19.0573C52.6751 21.6343 54.015 24.8743 54.1248 28.7736C54.0179 32.673 52.6745 35.9129 50.098 38.49C47.5216 41.0664 44.2816 42.4063 40.3823 42.5161ZM40.3823 39.0807C40.8837 39.0807 41.2965 39.2421 41.6194 39.5615C41.9388 39.8845 42.1003 40.2967 42.1003 40.7981V54.5412C42.1173 55.0021 41.9429 55.4496 41.6194 55.7784C41.2912 56.1025 40.8438 56.2763 40.3823 56.2593C39.9213 56.2763 39.4739 56.1019 39.1451 55.7784C38.821 55.4502 38.6472 55.0027 38.6642 54.5412V40.7987C38.6642 40.2973 38.8257 39.8851 39.1451 39.5621C39.4733 39.2374 39.9207 39.0636 40.3823 39.0807ZM33.5107 46.4331V49.9238C30.3976 50.4599 27.9103 51.1674 26.0485 52.0434C24.1866 52.9195 23.2377 53.7509 23.2037 54.5377C23.3099 55.6474 24.9663 56.7677 28.1716 57.8945C31.374 59.0219 35.4454 59.619 40.3823 59.6918C45.3226 59.6231 49.394 59.0219 52.5964 57.8945C55.7953 56.7677 57.451 55.648 57.5609 54.5377C57.5262 53.7509 56.5785 52.9195 54.7161 52.0434C52.8536 51.1674 50.3664 50.4628 47.2538 49.9238V46.4331C51.3358 47.0443 54.6268 48.0719 57.1316 49.5222C59.6365 50.9719 60.9247 52.6453 60.9969 54.5418C60.8525 56.9744 58.8391 58.9978 54.9568 60.606C51.0745 62.2207 46.2163 63.0592 40.3823 63.1314C34.5482 63.0592 29.69 62.2178 25.8077 60.606C21.9254 58.9978 19.912 56.9738 19.7676 54.5412C19.8398 52.6447 21.128 50.9713 23.6329 49.5216C26.1371 48.0719 29.4287 47.0443 33.5107 46.4331Z" fill="black"/>
</g>
</svg>
