<svg width="80" height="80" viewBox="0 0 80 80" fill="none" xmlns="http://www.w3.org/2000/svg">
<circle cx="40" cy="40" r="40" transform="matrix(-1 0 0 1 80 0)" fill="white"/>
<path d="M36.177 13.8817L36.177 13.8817L17.7389 24.5271C15.895 25.5916 14.75 27.5743 14.75 29.7041V50.995C14.75 53.1239 15.895 55.1074 17.7389 56.1719L36.1777 66.8174L36.3027 66.6008L36.1777 66.8174C37.0999 67.3497 38.1335 67.6161 39.1667 67.6161C40.1998 67.6161 41.2334 67.3497 42.1556 66.8174L42.0306 66.6008L42.1556 66.8174L60.5944 56.1719C62.4384 55.1074 63.5833 53.1239 63.5833 50.995V29.7041V29.704C63.5826 27.5743 62.4376 25.5916 60.5937 24.5271L42.1549 13.8817L42.0299 14.0982L42.1548 13.8817C40.3109 12.8172 38.021 12.8172 36.177 13.8817ZM60.8695 50.745H60.8688V50.995C60.8688 52.1572 60.2434 53.2406 59.2368 53.8217L59.3618 54.0382L59.2368 53.8217L40.798 64.4672C39.7913 65.0483 38.5406 65.0483 37.5339 64.4672L19.0958 53.8217L18.9708 54.0382L19.0958 53.8217C18.0892 53.2406 17.4638 52.1572 17.4638 50.995V29.7041C17.4638 28.5418 18.0892 27.4584 19.0958 26.8773L19.0958 26.8773L37.5346 16.2318L37.5347 16.2318C38.0374 15.9415 38.6021 15.796 39.1667 15.796C39.7312 15.796 40.296 15.9415 40.7986 16.2318L40.7987 16.2318L59.2375 26.8773L59.3625 26.6608L59.2375 26.8773C60.2442 27.4584 60.8695 28.5418 60.8695 29.7041V50.745Z" fill="black" stroke="black" stroke-width="0.5"/>
<path d="M52.9599 29.6022L52.9598 29.6022L39.3325 37.3969L25.7059 29.6022L25.7058 29.6022C24.8785 29.1294 23.8239 29.4157 23.3509 30.2435C22.8782 31.0708 23.1644 32.1254 23.9922 32.5984L37.611 40.3883L37.6037 56.3583V56.3584C37.6037 57.311 38.3759 58.0841 39.3286 58.085H39.3288H39.3295C40.2821 58.085 41.0554 57.3128 41.0554 56.36C41.0554 56.3599 41.0554 56.3599 41.0554 56.3599L41.0627 40.3847L54.6742 32.5992C55.5021 32.1261 55.7883 31.0716 55.3156 30.2442L55.3155 30.2442C54.8418 29.4158 53.7873 29.1294 52.9599 29.6022Z" fill="black" stroke="black" stroke-width="0.5"/>
</svg>
