<svg width="80" height="80" viewBox="0 0 80 80" fill="none" xmlns="http://www.w3.org/2000/svg">
<circle cx="40" cy="40" r="40" transform="matrix(-1 0 0 1 80 0)" fill="white"/>
<mask id="mask0_250_2342" style="mask-type:luminance" maskUnits="userSpaceOnUse" x="11" y="11" width="58" height="58">
<path d="M68.5887 11.6667V11.4167H68.3387H11.6665H11.4165V11.6667V68.3334V68.5834H11.6665H68.3387H68.5887V68.3334V11.6667Z" fill="white" stroke="white" stroke-width="0.5"/>
</mask>
<g mask="url(#mask0_250_2342)">
<path d="M17.4244 55.1248C17.1127 55.3583 16.9333 55.7332 16.8801 56.1059C16.827 56.4785 16.8943 56.8887 17.1277 57.2002L17.1286 57.2013C22.5984 64.4118 30.9289 68.5139 40.0015 68.5139C55.7893 68.5139 68.5938 55.7094 68.5938 39.9216C68.5938 24.1316 55.6643 11.4521 40.0015 11.4521C24.2137 11.4521 11.4092 24.2566 11.4092 40.0445C11.4092 43.4017 12.0305 46.8824 13.2742 50.116L13.281 50.1338L17.5743 55.3248M17.4244 55.1248L17.5743 55.3248M17.4244 55.1248C17.4243 55.1248 17.4242 55.1248 17.4242 55.1249L17.5743 55.3248M17.4244 55.1248C17.7359 54.891 18.1459 54.8237 18.5185 54.8769C18.8909 54.9302 19.2655 55.1096 19.4993 55.4207M17.5743 55.3248C18.0673 54.9547 18.9296 55.0783 19.2997 55.5713M19.4993 55.4207L19.2997 55.5713M19.4993 55.4207C19.4994 55.4209 19.4995 55.4211 19.4996 55.4212L19.2997 55.5713M19.4993 55.4207L19.2997 55.5713M15.8054 48.1272L15.6023 48.3009C15.5718 48.2169 15.5418 48.133 15.5122 48.049L15.7161 47.8747C15.7454 47.9588 15.7751 48.043 15.8054 48.1272ZM33.9597 46.7258L33.7905 46.8879L33.9635 47.0684L34.1324 46.8841L33.9597 46.7258ZM51.3468 30.0626H51.7081L51.4472 30.3126H51.0859L51.3468 30.0626ZM53.43 32.151L53.68 31.9109V32.2575L53.43 32.4976V32.151ZM33.1756 49.9607L33.1802 49.9648L33.3476 49.7791L33.1708 49.9559C33.1724 49.9575 33.174 49.9591 33.1756 49.9607ZM14.0005 50.8887L13.7769 51.0005C13.778 51.0026 13.779 51.0048 13.7801 51.0069L13.7835 51.0127L14.0005 50.8887Z" fill="black" stroke="black" stroke-width="0.5"/>
</g>
</svg>
