<svg width="80" height="80" viewBox="0 0 80 80" fill="none" xmlns="http://www.w3.org/2000/svg">
<circle cx="40" cy="40" r="40" fill="white"/>
<path d="M15.3477 47.9102L18.5577 45.1702L24.4477 40.1202C24.5772 39.97 24.7376 39.8495 24.918 39.7669C25.0983 39.6843 25.2943 39.6416 25.4927 39.6416C25.691 39.6416 25.8871 39.6843 26.0674 39.7669C26.2477 39.8495 26.4081 39.97 26.5377 40.1202L33.2877 46.3602C33.3977 46.4602 33.5277 46.5502 33.6877 46.6802L51.2777 29.8102H41.6577C41.4745 29.8374 41.2876 29.8221 41.1113 29.7657C40.935 29.7092 40.774 29.613 40.6407 29.4845C40.5074 29.3561 40.4053 29.1987 40.3424 29.0246C40.2795 28.8505 40.2573 28.6643 40.2777 28.4802C40.2723 28.3211 40.2991 28.1625 40.3566 28.014C40.4142 27.8655 40.5011 27.7302 40.6123 27.6163C40.7235 27.5023 40.8566 27.412 41.0036 27.3508C41.1506 27.2896 41.3085 27.2588 41.4677 27.2602H54.3477C55.4877 27.2602 55.8877 27.6502 55.8877 28.7902V41.2802C55.8877 42.1202 55.5777 42.5802 54.8877 42.7202C54.6914 42.771 54.4856 42.7728 54.2884 42.7255C54.0912 42.6783 53.9086 42.5834 53.7566 42.4491C53.6046 42.3149 53.4878 42.1454 53.4165 41.9556C53.3453 41.7658 53.3216 41.5613 53.3477 41.3602V31.7602C52.9677 32.1102 52.6577 32.3902 52.3477 32.6802L35.0277 49.3602C34.8966 49.5248 34.73 49.6577 34.5404 49.7491C34.3509 49.8405 34.1431 49.8879 33.9327 49.8879C33.7222 49.8879 33.5145 49.8405 33.3249 49.7491C33.1354 49.6577 32.9688 49.5248 32.8377 49.3602L25.9677 43.1502L25.5377 42.7802L19.7977 47.6602C18.5777 48.6602 17.3477 49.7302 16.1377 50.7802C15.9247 50.9809 15.665 51.1254 15.3822 51.2005C15.0993 51.2755 14.8022 51.2789 14.5177 51.2102C14.1758 51.1038 13.8821 50.8809 13.6877 50.5802C12.8824 49.1751 12.3339 47.6377 12.0677 46.0402C10.7201 40.1671 11.2789 34.0174 13.6629 28.4833C16.047 22.9493 20.1324 18.3188 25.3263 15.2638C30.5202 12.2087 36.5524 10.8881 42.5476 11.4934C48.5429 12.0988 54.1893 14.5986 58.6677 18.6302C63.4809 22.9028 66.6619 28.7134 67.6677 35.0702C68.6215 40.6268 67.8538 46.3422 65.4677 51.4502C62.816 57.3188 58.2257 62.0963 52.4677 64.9802C48.2755 67.1247 43.6032 68.1577 38.8977 67.9802C32.0776 67.8697 25.5374 65.2494 20.5277 60.6202C19.3294 59.4613 18.2008 58.2325 17.1477 56.9402C17.0136 56.8057 16.9098 56.644 16.8435 56.466C16.7771 56.288 16.7496 56.0979 16.7629 55.9084C16.7761 55.7189 16.8298 55.5344 16.9204 55.3674C17.0109 55.2004 17.1361 55.0548 17.2877 54.9402C17.5941 54.7456 17.9652 54.6804 18.3196 54.7592C18.674 54.8379 18.9826 55.0541 19.1777 55.3602C22.7704 60.1927 27.9867 63.5661 33.8677 64.8602C37.9922 65.8869 42.3099 65.8503 46.4164 64.7537C50.5229 63.6571 54.284 61.5365 57.3477 58.5902C61.8578 54.5548 64.7087 48.9883 65.3477 42.9702C65.9112 38.9122 65.4772 34.778 64.0832 30.9255C62.6893 27.0729 60.3774 23.6182 57.3477 20.8602C53.5335 17.1694 48.617 14.827 43.3477 14.1902C39.5696 13.6066 35.7081 13.8923 32.057 15.0255C28.4059 16.1588 25.0613 18.1099 22.2777 20.7302C17.9113 24.6495 15.056 29.9746 14.2077 35.7802C13.5411 39.7383 13.8851 43.8006 15.2077 47.5902L15.3477 47.9102Z" fill="black"/>
<path fill-rule="evenodd" clip-rule="evenodd" d="M42.5129 11.8417C36.5916 11.2438 30.6339 12.5482 25.5041 15.5655C20.3744 18.5828 16.3394 23.1561 13.9848 28.6218C11.6301 34.0876 11.0782 40.1614 12.4092 45.962L12.4116 45.9723L12.4133 45.9827C12.6721 47.536 13.2049 49.0308 13.9868 50.3976C14.1347 50.6226 14.3551 50.7902 14.6114 50.8727C14.8359 50.9249 15.0698 50.9214 15.2928 50.8622C15.5194 50.8021 15.7274 50.6863 15.898 50.5255L15.9033 50.5206L16.0601 50.3846C17.2198 49.3781 18.4011 48.3529 19.5738 47.3915L19.5762 47.3896L25.5394 42.3197L26.2028 42.8905L33.094 49.1198L33.1118 49.1422C33.2102 49.2656 33.3351 49.3653 33.4773 49.4338C33.6194 49.5023 33.7752 49.5379 33.9331 49.5379C34.0909 49.5379 34.2467 49.5023 34.3889 49.4338C34.5311 49.3653 34.656 49.2656 34.7543 49.1422L34.7687 49.1242L52.1089 32.4246C52.3046 32.2416 52.5018 32.0612 52.7148 31.8662C52.8403 31.7513 52.9714 31.6314 53.111 31.5028L53.6981 30.9621V41.3829L53.6952 41.4053C53.6765 41.5496 53.6934 41.6963 53.7446 41.8326C53.7958 41.9688 53.8796 42.0905 53.9887 42.1868C54.0977 42.2832 54.2288 42.3513 54.3703 42.3852C54.5119 42.4191 54.6596 42.4178 54.8005 42.3814L54.8094 42.3791L54.8185 42.3773C55.0963 42.3209 55.2576 42.2107 55.3587 42.0641C55.4665 41.9077 55.5381 41.663 55.5381 41.2803V28.7903C55.5381 28.2436 55.4383 27.984 55.2994 27.8465C55.1595 27.7081 54.8963 27.6103 54.3481 27.6103H41.4681L41.4649 27.6103C41.3529 27.6092 41.2419 27.6309 41.1385 27.6739C41.0351 27.717 40.9414 27.7805 40.8632 27.8607C40.785 27.9408 40.7239 28.036 40.6834 28.1405C40.643 28.2449 40.6241 28.3565 40.6279 28.4684L40.6287 28.4936L40.626 28.5188C40.6115 28.6495 40.6272 28.7819 40.6719 28.9057C40.7167 29.0294 40.7892 29.1412 40.8839 29.2326C40.9787 29.3239 41.0931 29.3922 41.2184 29.4324C41.3438 29.4725 41.4766 29.4833 41.6068 29.464L41.6323 29.4603H52.1487L33.7073 47.1468L33.4674 46.9519C33.4208 46.9141 33.3689 46.8739 33.3162 46.8331C33.2228 46.7609 33.1268 46.6866 33.0526 46.6192L33.0505 46.6173L26.286 40.3638L26.273 40.3489C26.1763 40.2368 26.0566 40.1468 25.922 40.0852C25.7874 40.0235 25.6411 39.9916 25.4931 39.9916C25.345 39.9916 25.1987 40.0235 25.0641 40.0852C24.9295 40.1468 24.8098 40.2368 24.7131 40.3489L24.6959 40.3688L18.7859 45.436L15.2165 48.4827L14.882 47.7183L14.8776 47.7056C13.536 43.8615 13.1868 39.7409 13.8623 35.7259C14.7229 29.8421 17.6167 24.4454 22.0412 20.4726C24.863 17.8171 28.253 15.8399 31.9536 14.6913C35.6537 13.5428 39.5669 13.2529 43.3958 13.8435C48.737 14.4902 53.7205 16.8646 57.5876 20.605C60.6574 23.4007 63 26.902 64.4127 30.8064C65.8254 34.7106 66.2657 38.9002 65.6955 43.0127C65.0464 49.1129 62.1568 54.7551 57.5862 58.8469C54.4807 61.8319 50.6688 63.9806 46.5071 65.0919C42.3449 66.2033 37.9688 66.2409 33.7882 65.2011C27.8268 63.888 22.5393 60.468 18.8972 55.5691L18.8897 55.559L18.8829 55.5484C18.7377 55.3205 18.5079 55.1595 18.2441 55.1009C17.9849 55.0433 17.7136 55.0891 17.4879 55.2281C17.3812 55.3111 17.2929 55.4154 17.2285 55.5343C17.1618 55.6573 17.1222 55.7932 17.1124 55.9329C17.1026 56.0725 17.1229 56.2126 17.1718 56.3437C17.2207 56.4749 17.2971 56.594 17.396 56.6932L17.4083 56.7056L17.4194 56.7192C18.4629 57.9997 19.5813 59.2175 20.7686 60.366C25.7147 64.935 32.1711 67.5212 38.9037 67.6303L38.9113 67.6304C43.5569 67.8056 48.1698 66.7859 52.3087 64.6687L52.3113 64.6673C57.9975 61.8193 62.5305 57.1015 65.1491 51.3061L65.151 51.3021C67.5069 46.2588 68.2648 40.6157 67.3231 35.1295L67.3223 35.125C66.3292 28.8482 63.1883 23.1107 58.4357 18.892L58.4339 18.8904C54.0108 14.9085 48.4341 12.4395 42.5129 11.8417ZM25.1492 14.9621C30.4072 11.8694 36.5139 10.5324 42.5832 11.1452C48.652 11.758 54.3678 14.2884 58.9012 18.3692C63.774 22.695 66.9946 28.5777 68.0134 35.0133C68.9785 40.6388 68.2014 46.425 65.7861 51.5965C63.1013 57.537 58.4545 62.373 52.6259 65.2927C48.3819 67.4633 43.6521 68.5091 38.8886 68.3302C31.9838 68.2173 25.3626 65.5641 20.2905 60.8773L20.2847 60.8719C19.0804 59.7073 17.946 58.4725 16.8872 57.1742C16.7241 57.0069 16.5976 56.8074 16.5159 56.5883C16.4321 56.3635 16.3974 56.1234 16.4141 55.884C16.4309 55.6446 16.4987 55.4116 16.6131 55.2007C16.7274 54.9897 16.8856 54.8057 17.077 54.661L17.0884 54.6525L17.1004 54.6449C17.4851 54.4004 17.951 54.3187 18.3959 54.4176C18.8365 54.5155 19.2207 54.7825 19.466 55.1609C23.0082 59.9207 28.1485 63.2433 33.9433 64.5184L33.9527 64.5205C38.0197 65.5329 42.2772 65.4969 46.3265 64.4156C50.3758 63.3343 54.0845 61.2432 57.1055 58.338L57.1145 58.3293C61.56 54.3516 64.3702 48.8652 65 42.9333L65.0012 42.9221C65.5569 38.9204 65.1291 34.8436 63.7545 31.0446C62.3799 27.2455 60.1001 23.8387 57.1125 21.1191L57.1046 21.1119C53.3452 17.4741 48.4996 15.1653 43.3061 14.5377L43.2946 14.5363C39.5691 13.9608 35.7614 14.2423 32.1611 15.3598C28.5608 16.4773 25.2628 18.4012 22.518 20.9851L22.5119 20.9908C18.2065 24.8554 15.3909 30.1061 14.5544 35.8309L14.5533 35.8384C13.905 39.688 14.2268 43.6376 15.4885 47.3302L18.3303 44.9046L24.2014 39.8707C24.3605 39.6922 24.555 39.5484 24.7726 39.4487C24.9987 39.3452 25.2444 39.2916 25.4931 39.2916C25.7417 39.2916 25.9875 39.3452 26.2135 39.4487C26.4333 39.5494 26.6294 39.6949 26.7894 39.8759L33.5235 46.1013L33.5246 46.1022C33.5706 46.144 33.614 46.1786 33.6647 46.2177L50.4075 30.1603H41.6822C41.4548 30.1899 41.2236 30.169 41.005 30.099C40.7776 30.0262 40.5701 29.9022 40.3982 29.7366C40.2263 29.5709 40.0948 29.3681 40.0136 29.1436C39.9354 28.927 39.906 28.6959 39.9276 28.4669C39.9242 28.269 39.9591 28.0723 40.0307 27.8877C40.1052 27.6951 40.218 27.5197 40.3621 27.3719C40.5063 27.2241 40.6789 27.107 40.8695 27.0277C41.0596 26.9486 41.2637 26.9086 41.4696 26.9103H54.3481C54.9398 26.9103 55.4466 27.0074 55.7918 27.349C56.1379 27.6915 56.2381 28.197 56.2381 28.7903V41.2803C56.2381 41.7375 56.1546 42.1428 55.935 42.4614C55.7102 42.7875 55.3748 42.9769 54.9666 43.0615C54.7176 43.1242 54.457 43.1258 54.2072 43.0659C53.9543 43.0053 53.7202 42.8836 53.5253 42.7115C53.3304 42.5394 53.1807 42.3221 53.0893 42.0787C53.0007 41.8427 52.9695 41.5892 52.9981 41.3391V32.556C52.8579 32.6845 52.7238 32.8081 52.5891 32.9341L52.5872 32.9359L35.2865 49.5973C35.1251 49.7943 34.9224 49.9538 34.6928 50.0644C34.4558 50.1786 34.1961 50.2379 33.9331 50.2379C33.67 50.2379 33.4104 50.1786 33.1734 50.0644C32.9455 49.9546 32.7442 49.7967 32.5833 49.6018L25.7366 43.4128L25.5367 43.2408L20.02 47.931C18.8543 48.8865 17.6789 49.9065 16.5163 50.9154L16.3727 51.0401C16.1183 51.2781 15.809 51.4494 15.4723 51.5388C15.1332 51.6288 14.777 51.6328 14.436 51.5505L14.4249 51.5478L14.4141 51.5444C13.994 51.4137 13.6331 51.1398 13.3942 50.7703L13.3891 50.7624L13.3844 50.7543C12.5603 49.3161 11.9983 47.743 11.7246 46.1083C10.3634 40.1657 10.9298 33.944 13.3419 28.3449C15.7554 22.7425 19.8912 18.0549 25.1492 14.9621Z" fill="black"/>
</svg>
