<svg width="191" height="35" viewBox="0 0 191 35" fill="none" xmlns="http://www.w3.org/2000/svg">
<path d="M8.91193 0.741601C9.25834 0.315257 9.95115 0.555075 9.95115 1.10133C9.95115 3.47287 9.95115 5.8444 9.95115 8.20262C9.95115 10.9072 7.73949 13.0922 5.02155 13.0922H0.85137C0.145237 13.0922 -0.25446 12.2795 0.185207 11.7333L8.91193 0.741601Z" fill="#2A62AE"/>
<path d="M13.1355 0.741612C12.7891 0.301945 12.083 0.541763 12.083 1.10134C12.083 3.47288 12.083 5.84441 12.083 8.20263C12.083 10.9072 14.2947 13.0923 17.0126 13.0923H21.1828C21.8889 13.0923 22.2886 12.2795 21.8489 11.7333L13.1355 0.741612Z" fill="#2A62AE"/>
<path d="M21.9286 16.503C22.235 15.9568 21.8486 15.2906 21.2224 15.2906H16.8657C14.2277 15.2906 12.096 17.409 12.096 20.0337V24.6169C12.096 24.8301 12.0294 24.9899 11.9361 25.1232C11.5231 25.6961 10.5239 25.6961 10.1108 25.1232C10.0176 24.9899 9.95096 24.8167 9.95096 24.6169V20.0737C9.95096 17.449 7.81924 15.3306 5.19456 15.3306H0.82454C0.198348 15.3306 -0.188026 15.9967 0.118408 16.543L10.0309 33.9964C10.404 34.6493 11.5764 34.6493 11.9494 33.9964L21.9286 16.503Z" fill="#2A62AE"/>
<path d="M178.556 19.4874V29.8795H183.339V19.4874L191 5.20488V4.80518H185.791L180.954 13.825L176.105 4.80518H170.682L178.556 19.4874Z" fill="#030922"/>
<path d="M49.1489 5.05834C51.5604 5.53797 53.7854 6.73707 55.5174 8.49573L52 12.0397C50.9608 10.9872 49.6285 10.2677 48.1763 9.97462C46.7374 9.69483 45.2318 9.84138 43.8729 10.4143C42.5139 10.9872 41.3415 11.9465 40.5287 13.1855C39.7027 14.4246 39.2764 15.8768 39.2764 17.369C39.2764 18.8612 39.716 20.3135 40.5287 21.5525C41.3548 22.7916 42.5139 23.7509 43.8729 24.3238C45.2318 24.8967 46.7374 25.0432 48.1896 24.7501C49.6418 24.457 50.9742 23.7375 52.0134 22.685L55.5307 26.229C53.7854 27.9876 51.5737 29.1734 49.1622 29.6664C46.7507 30.146 44.2459 29.9062 41.9676 28.9469C39.6894 28.001 37.7442 26.3889 36.3852 24.3238C35.0129 22.2586 34.2935 19.8338 34.2935 17.3557C34.2935 14.8776 35.0262 12.4527 36.3852 10.3876C37.7575 8.32253 39.6894 6.72374 41.9676 5.76447C44.2326 4.81852 46.7374 4.5787 49.1489 5.05834Z" fill="#030922"/>
<path d="M155.773 18.1684L152.975 21.2328V29.9062H148.192V19.4608L148.139 19.4208L148.192 19.3675V4.81852H152.975V14.1581L161.542 4.81852H168.031L159.171 14.4779L168.084 29.9062H162.555L155.773 18.1684Z" fill="#030922"/>
<path fillRule="evenodd" clipRule="evenodd" d="M67.7869 9.60157C65.1489 9.60157 63.0039 11.7466 63.0039 14.3846V20.3534C63.0039 22.9914 65.1489 25.1365 67.7869 25.1365H68.986C71.624 25.1365 73.7691 22.9914 73.7691 20.3534V14.3713C73.7691 11.7333 71.624 9.58824 68.986 9.58824H67.7869V9.60157ZM58.2075 14.3713C58.2075 9.09528 62.4976 4.81852 67.7736 4.81852H68.9727C74.262 4.81852 78.5388 9.09528 78.5388 14.3713V20.3401C78.5388 25.6161 74.2487 29.8929 68.9727 29.8929H67.7736C62.4843 29.8929 58.2075 25.6161 58.2075 20.3401V14.3713Z" fill="#030922"/>
<path fillRule="evenodd" clipRule="evenodd" d="M91.9559 9.60156H87.1728V16.7695H91.9559C93.941 16.7695 95.5398 15.1707 95.5398 13.1855C95.5398 11.2004 93.941 9.60156 91.9559 9.60156ZM82.3765 4.81852V29.9062H87.1595V21.5392H90.3571L95.1934 29.9062H100.723L95.4466 20.7798C98.3244 19.4608 100.323 16.5563 100.323 13.1855C100.323 8.56235 96.579 4.81852 91.9426 4.81852H82.3765Z" fill="#030922"/>
<path d="M105.119 4.81852H121.386V9.60156H109.902V14.9708H120.107V19.7539H109.902V25.1231H121.386V29.9062H105.119V4.81852Z" fill="#030922"/>
<path d="M132.872 4.81852C128.768 4.81852 125.451 8.13601 125.451 12.2262C125.451 16.3165 128.768 19.634 132.872 19.634H136.576C138.094 19.634 139.334 20.8597 139.334 22.3786C139.334 23.8974 138.108 25.1231 136.576 25.1231H133.764C131.819 25.1231 130.247 23.551 130.247 21.6058H125.464C125.464 26.189 129.181 29.9062 133.778 29.9062H136.589C140.746 29.9062 144.13 26.5354 144.13 22.3786C144.13 18.2217 140.759 14.8509 136.589 14.8509H132.885C131.433 14.8509 130.247 13.6785 130.247 12.2262C130.247 10.774 131.419 9.60156 132.885 9.60156H135.963C137.828 9.60156 139.347 11.1204 139.347 12.9857H144.13C144.13 8.48241 140.466 4.83184 135.963 4.83184H132.872V4.81852Z" fill="#030922"/>
</svg>
