<svg width="223" height="37" viewBox="0 0 223 37" fill="none" xmlns="http://www.w3.org/2000/svg">
<path d="M1 35.7718V1.08745H17.6288C22.2709 1.08745 25.8282 1.38273 28.3024 1.97328C30.7765 2.56384 33.1418 3.65948 35.3984 5.25864C37.6565 6.85625 39.3753 8.79732 40.5549 11.0756C41.7344 13.357 42.3234 15.8902 42.3234 18.6798C42.3234 21.0125 41.8106 23.2333 40.7833 25.3391C39.756 27.4465 38.3154 29.2834 36.4645 30.8515C34.612 32.4196 32.6088 33.5494 30.4532 34.2379C28.2977 34.9279 26.2727 35.3568 24.3845 35.5216C22.4931 35.6894 19.329 35.7718 14.8905 35.7718H1ZM18.8457 14.3159H18.4649V22.3164H18.9218C21.0525 22.3164 22.5988 21.9947 23.5639 21.3513C24.5275 20.7079 25.0108 19.6807 25.0108 18.2711C25.0108 16.8771 24.529 15.87 23.5639 15.2484C22.5988 14.6252 21.0276 14.3159 18.8457 14.3159Z" fill="#F0C623" stroke="#221714" stroke-width="2" stroke-miterlimit="10"/>
<path d="M61.0069 29.8615L58.7628 35.7702H41.0679L55.1853 1.08745H80.1083L93.5015 35.7718H75.9993L73.7163 29.8631H61.0069V29.8615ZM64.126 21.7243H70.5957L67.3989 13.2467L64.126 21.7243Z" fill="#F0C623" stroke="#221714" stroke-width="2" stroke-miterlimit="10"/>
<path d="M97.2305 35.7718V1.08745H114.695C120.758 1.08745 124.817 1.20867 126.872 1.45111C128.926 1.6951 130.715 2.2437 132.236 3.1C133.758 3.95631 134.981 5.12344 135.907 6.59983C136.833 8.07622 137.297 9.64275 137.297 11.2932C137.297 14.779 135.812 17.4008 132.844 19.1585C137.13 23.4012 139.681 28.94 140.493 35.7733H122.343V35.4547C122.343 31.3783 121.695 28.2732 120.402 26.1364C119.107 23.9995 117.281 22.9318 114.922 22.9318H114.694V35.7733H97.2305V35.7718ZM115 8.22386H114.695V14.9065H115.152C116.851 14.9065 118.082 14.6345 118.843 14.0875C119.605 13.542 119.986 12.6717 119.986 11.4735C119.986 9.30862 118.323 8.22386 115 8.22386Z" fill="#F0C623" stroke="#221714" stroke-width="2" stroke-miterlimit="10"/>
<path d="M162.146 27.0657H177.443V35.7702H144.681V1.08745H177.443V9.79194H162.146V14.0875H172.838V22.7935H162.146V27.0657Z" fill="#F0C623" stroke="#221714" stroke-width="2" stroke-miterlimit="10"/>
<path d="M200.233 25.2474V35.7702H182.768V1.08745H195.249L204.533 12.6779V1.08745H222V35.9987H208.718L200.233 25.2474Z" fill="#F0C623" stroke="#221714" stroke-width="2" stroke-miterlimit="10"/>
<path d="M52.8179 12.0003C52.8179 12.0003 72.8066 1.83962 81.9074 18.7715C81.9074 18.7715 58.1344 30.6153 52.8179 12.0003Z" fill="#F08619" stroke="#231815" stroke-width="2" stroke-miterlimit="10"/>
<path d="M67.2847 19.7382C67.9794 19.7382 68.5435 18.1219 68.5435 16.128C68.5435 14.1341 67.9794 12.5178 67.2847 12.5178C66.59 12.5178 66.0259 14.1341 66.0259 16.128C66.0259 18.1219 66.59 19.7382 67.2847 19.7382Z" fill="#231815"/>
<path d="M131.731 7.99384C131.731 7.99384 111.74 -2.16684 102.641 14.765C102.641 14.765 126.414 26.6088 131.731 7.99384Z" fill="#F08619" stroke="#231815" stroke-width="2" stroke-miterlimit="10"/>
<path d="M117.341 15.1753C118.035 15.1753 118.6 13.5591 118.6 11.5652C118.6 9.57125 118.035 7.95499 117.341 7.95499C116.646 7.95499 116.083 9.57125 116.083 11.5652C116.082 13.5591 116.646 15.1753 117.341 15.1753Z" fill="#231815"/>
</svg>
