<svg width="264" height="26" viewBox="0 0 264 26" fill="none" xmlns="http://www.w3.org/2000/svg">
<path d="M16.9958 0.616662H1.57281L0 5.82928H17.2429C17.7564 5.82928 18.2291 5.9625 18.661 6.23108C19.5033 6.80691 19.9266 7.72224 19.9266 8.97705C19.9266 9.49057 19.8342 9.98476 19.6494 10.4575C19.196 11.6091 18.3946 12.185 17.2429 12.185H5.82928V7.8662L0 9.43901V25.1392H5.82928V17.3954H16.9958C19.6902 17.3954 21.8689 16.6542 23.5341 15.1737C25.2402 13.6525 26.0953 11.6779 26.0953 9.25208C26.0953 7.27747 25.498 5.50913 24.3055 3.94707C22.578 1.72751 20.1414 0.616662 16.9958 0.616662ZM31.2757 25.1392H37.105V0.616662H31.2757V25.1392ZM53.7312 5.82928H67.1796L68.7524 0.616662H53.0222C49.8142 0.638148 47.2552 1.84139 45.3408 4.22639C43.5531 6.48891 42.6571 9.30579 42.6571 12.677C42.6571 15.8656 43.4693 18.6202 45.0937 20.9429C47.0253 23.7404 49.6681 25.137 53.02 25.137H67.1775L68.7503 19.9244H53.7291C52.5366 19.9244 51.5181 19.4925 50.6758 18.6288C49.4425 17.3331 48.8259 15.4724 48.8259 13.0466C48.8259 11.4845 49.1138 10.0643 49.6896 8.79012C50.6157 6.81766 51.9629 5.82928 53.7312 5.82928ZM97.8086 0.616662H89.7576L79.7642 10.0234V0L73.935 1.57281V25.1392H79.7642V15.7926L89.7576 25.1392H98.4252L84.545 12.5846L97.8086 0.616662ZM119.213 0.616662H105.056L103.483 5.82928H118.504C119.718 5.82928 120.745 6.2719 121.59 7.155C122.804 8.45063 123.41 10.3114 123.41 12.7372C123.41 14.3207 123.111 15.7388 122.516 16.9937C121.611 18.9468 120.275 19.9244 118.506 19.9244H109.315V7.89628L103.485 9.46909V25.1392H119.216C122.402 25.1198 124.952 23.9252 126.865 21.5617C128.674 19.3206 129.578 16.5038 129.578 13.111C129.578 9.9246 128.766 7.15714 127.142 4.81297C125.187 2.01543 122.546 0.616662 119.213 0.616662ZM147.653 0.0923918C143.972 0.0923918 140.876 0.93681 138.369 2.62135C134.995 4.9247 133.311 8.3475 133.311 12.8919C133.311 16.738 134.555 19.8019 137.043 22.0838C139.653 24.4688 143.19 25.6613 147.653 25.6613C151.293 25.6613 154.357 24.92 156.845 23.4396C160.566 21.2179 162.427 17.7027 162.427 12.8897C162.427 9.12745 161.254 6.12364 158.91 3.88261C156.258 1.35795 152.507 0.0923918 147.653 0.0923918ZM155.889 15.8549C154.984 18.8565 152.341 20.3584 147.962 20.3584C146.091 20.3584 144.548 20.1221 143.336 19.6494C140.766 18.6631 139.482 16.4114 139.482 12.894C139.482 11.2482 139.748 9.88163 140.283 8.79226C141.435 6.52974 143.994 5.39955 147.964 5.39955C149.116 5.39955 150.154 5.50269 151.08 5.70896C154.535 6.49106 156.263 8.88681 156.263 12.8962C156.258 13.9834 156.136 14.9696 155.889 15.8549ZM173.778 0.616662H167.949V25.1392H189.448L191.021 19.9266H173.778V0.616662ZM207.675 5.82928H211.625V25.1392H217.454V0.616662H209.248L207.675 5.82928ZM236.484 0.247094C233.092 0.247094 230.223 1.07003 227.879 2.71374C224.69 4.97627 223.098 8.36898 223.098 12.8919C223.098 16.6757 224.25 19.6881 226.553 21.9291C229.001 24.3141 232.312 25.5066 236.484 25.5066C239.774 25.5066 242.572 24.8169 244.875 23.4396C248.474 21.2609 250.272 17.7435 250.272 12.8897C250.272 9.18762 249.194 6.22678 247.034 4.00723C244.546 1.5019 241.029 0.247094 236.484 0.247094ZM243.642 16.1944C242.778 18.8673 240.485 20.2037 236.764 20.2037C235.18 20.2037 233.865 19.9975 232.815 19.5871C230.43 18.6417 229.237 16.4092 229.237 12.894C229.237 11.2911 229.473 9.95468 229.946 8.88466C230.954 6.66295 233.225 5.55425 236.764 5.55425C237.894 5.55425 238.893 5.67673 239.755 5.92382C242.653 6.72527 244.104 9.0501 244.104 12.894C244.104 14.1467 243.949 15.249 243.642 16.1944ZM255.794 0.616662L254.222 5.82928H258.171V25.1392H264V0.616662H255.794Z" fill="black"/>
</svg>
