<svg width="162" height="32" viewBox="0 0 162 32" fill="none" xmlns="http://www.w3.org/2000/svg">
<path d="M37.4967 21.0427H29.9774V7.2207H25.166V30.2707H29.9774V25.7493H37.4967V30.2707H42.3082V7.2207H37.4967V21.0427Z" fill="white"/>
<path d="M58.6791 9.69485C57.0021 8.09631 54.9676 7.28613 52.6354 7.28613C50.2778 7.28613 48.2432 8.09812 46.588 9.69848C44.9255 11.3061 44.0815 13.2843 44.0815 15.5804V30.2725H48.893V25.7512H56.4104V30.2725H61.2219V15.5786C61.2219 13.2825 60.367 11.3025 58.6791 9.69485ZM52.6354 11.9909C53.6826 11.9909 54.5574 12.3397 55.3088 13.0591C56.0511 13.7675 56.4104 14.5959 56.4104 15.5913V21.0445H48.893V15.5822C48.893 14.5868 49.2451 13.7584 49.9674 13.05C50.6952 12.3379 51.5682 11.9909 52.6354 11.9909Z" fill="white"/>
<path d="M67.7733 7.2207H62.9619V30.2707H67.7733V7.2207Z" fill="white"/>
<path d="M23.576 24.4595H17.5903V30.3014H23.576V24.4595Z" fill="white"/>
<path d="M20.5106 5.95267H20.6594C22.2693 5.95267 23.5778 4.64295 23.5778 3.03168C23.5778 1.42042 22.2674 0.108887 20.6576 0.108887H20.5088C18.8989 0.108887 17.5903 1.41861 17.5903 3.02987C17.5903 4.64113 18.9007 5.95267 20.5106 5.95267Z" fill="white"/>
<path d="M128.839 7.22095H124.028V30.2709H128.839V7.22095Z" fill="white"/>
<path d="M157.187 7.2207V21.0427H149.669V7.2207H144.858V30.2707H149.669V25.7493H157.187V30.2707H162V7.2207H157.187Z" fill="white"/>
<path d="M138.743 7.2207H136.916H132.249H130.177V11.9255H132.249H134.511V30.2707H139.322V11.9255H141.301H143.858V7.2207H141.301H138.743Z" fill="white"/>
<path d="M81.9428 7.2207V21.5876L74.1694 8.67938C73.4652 7.4732 72.5595 7.2207 71.9243 7.2207C71.2836 7.2207 70.7192 7.48955 70.289 7.99999C69.8843 8.47956 69.6792 9.09718 69.6792 9.83469V30.2725H74.4906V18.4559L81.6615 30.3052H82.5217V30.2725H86.756V7.2207H81.9428Z" fill="white"/>
<path d="M8.73909 21.713C7.02578 20.0455 6.11468 18.1199 5.95315 15.8384H0.00195312C0.170743 19.713 1.70255 23.0791 4.56109 25.8402C7.59386 28.7721 11.3018 30.258 15.5832 30.258H16.3092V24.4596H15.5832C12.8772 24.4614 10.6393 23.5623 8.73909 21.713Z" fill="white"/>
<path d="M15.5831 0C11.3017 0 7.59372 1.48592 4.56095 4.4178C1.69334 7.18983 0.16153 10.5559 0 14.4214H5.9512C6.10547 12.149 7.01657 10.2252 8.73895 8.54677C10.6392 6.69755 12.877 5.79836 15.5813 5.79836H16.3073V0H15.5831Z" fill="white"/>
<path fillRule="evenodd" clipRule="evenodd" d="M105.37 32C114.199 32 121.356 24.8366 121.356 16C121.356 12.9143 120.484 10.0326 118.972 7.58877L112.091 26.3652C111.586 27.7058 110.726 27.9855 110.093 27.9855C109.459 27.9855 108.599 27.7058 108.096 26.367L105.818 20.1163L108.076 13.9656L110.089 19.486L114.975 6.23985V6.23804H118.037C115.114 2.44407 110.527 0 105.37 0C100.212 0 95.6252 2.4448 92.7022 6.23975H95.8344L100.688 19.4859L105.539 6.23975H110.031L107.788 12.3669L104.523 21.2752V21.277H104.524L102.662 26.3596C102.159 27.7057 101.303 27.9872 100.671 27.9872C100.025 27.9872 99.1503 27.7075 98.6494 26.3705L91.7682 7.58995C90.2567 10.0336 89.3843 12.9148 89.3843 16C89.3843 24.8366 96.5415 32 105.37 32Z" fill="white"/>
</svg>
