<svg width="20" height="20" viewBox="0 0 20 20" fill="none" xmlns="http://www.w3.org/2000/svg">
<path d="M16.6875 15.6426C16.6914 15.6367 16.6973 15.6309 16.7012 15.625C17.9805 14.1035 18.75 12.1426 18.75 10C18.75 7.85742 17.9805 5.89648 16.7031 4.375C16.6992 4.36914 16.6934 4.36523 16.6895 4.35938C16.668 4.33398 16.6484 4.31055 16.627 4.28711C16.6191 4.27734 16.6113 4.26953 16.6035 4.25977L16.5234 4.16797L16.5215 4.16602C16.4922 4.13281 16.4609 4.09961 16.4316 4.06641L16.4297 4.06445C16.3672 3.99805 16.3047 3.93164 16.2402 3.86719L16.2383 3.86523L16.1445 3.77148L16.1387 3.76562C16.1094 3.73633 16.0801 3.70898 16.0508 3.68164C16.041 3.67188 16.0312 3.66211 16.0195 3.65234C16 3.63281 15.9805 3.61523 15.9609 3.59766C15.9551 3.5918 15.9473 3.58594 15.9414 3.57812C14.3828 2.13281 12.2949 1.25 10 1.25C7.70508 1.25 5.61719 2.13281 4.05664 3.57812C4.05078 3.58398 4.04297 3.58984 4.03711 3.59766C4.01758 3.61523 3.99805 3.63477 3.97852 3.6543C3.96875 3.66406 3.95898 3.67383 3.94727 3.68359C3.91797 3.71094 3.88867 3.74023 3.85938 3.76758L3.85352 3.77344L3.75977 3.86719L3.75781 3.86914C3.69336 3.93359 3.63086 4 3.56836 4.06641L3.56641 4.06836C3.53516 4.10156 3.50586 4.13477 3.47656 4.16797L3.47461 4.16992C3.44727 4.19922 3.41992 4.23047 3.39453 4.26172C3.38672 4.27148 3.37891 4.2793 3.37109 4.28906C3.34961 4.3125 3.33008 4.33789 3.30859 4.36133C3.30469 4.36719 3.29883 4.37109 3.29492 4.37695C2.01953 5.89648 1.25 7.85742 1.25 10C1.25 12.1426 2.01953 14.1035 3.29688 15.625C3.30078 15.6309 3.30664 15.6367 3.31055 15.6426L3.37109 15.7148C3.37891 15.7246 3.38672 15.7324 3.39453 15.7422L3.47461 15.834C3.47461 15.8359 3.47656 15.8359 3.47656 15.8379C3.50586 15.8711 3.53516 15.9043 3.56641 15.9355L3.56836 15.9375C3.63086 16.0039 3.69336 16.0703 3.75586 16.1348L3.75781 16.1367C3.78906 16.168 3.81836 16.1992 3.84961 16.2285L3.85547 16.2344C3.91992 16.2988 3.98633 16.3613 4.05273 16.4219C5.61719 17.8672 7.70508 18.75 10 18.75C12.2949 18.75 14.3828 17.8672 15.9434 16.4219C16.0099 16.3609 16.075 16.2984 16.1387 16.2344L16.1445 16.2285C16.1758 16.1973 16.207 16.168 16.2363 16.1367L16.2383 16.1348C16.3027 16.0703 16.3652 16.0039 16.4258 15.9375L16.4277 15.9355C16.457 15.9023 16.4883 15.8711 16.5176 15.8379C16.5176 15.8359 16.5195 15.8359 16.5195 15.834C16.5469 15.8047 16.5742 15.7734 16.5996 15.7422C16.6074 15.7324 16.6152 15.7246 16.623 15.7148C16.6451 15.6913 16.6666 15.6672 16.6875 15.6426ZM16.7676 12.8574C16.498 13.4941 16.1426 14.084 15.709 14.6191C15.2207 14.1971 14.6868 13.8309 14.1172 13.5273C14.3438 12.6113 14.4844 11.6055 14.5215 10.5469H17.3242C17.2656 11.3457 17.0781 12.1211 16.7676 12.8574ZM17.3242 9.45312H14.5215C14.4844 8.39453 14.3438 7.38867 14.1172 6.47266C14.6895 6.16797 15.2227 5.80078 15.709 5.38086C16.6515 6.54097 17.2153 7.96238 17.3242 9.45312ZM12.8574 3.23242C13.6328 3.56055 14.3379 4.01367 14.959 4.58398C14.5982 4.8912 14.2098 5.16449 13.7988 5.40039C13.4922 4.52148 13.0996 3.75781 12.6426 3.14648C12.7148 3.17383 12.7871 3.20312 12.8574 3.23242ZM11.0879 16.916C10.9082 17.0566 10.7285 17.1641 10.5469 17.2363V13.6133C11.3219 13.6673 12.084 13.8399 12.8066 14.125C12.6445 14.6055 12.457 15.0488 12.2402 15.4492C11.9004 16.082 11.502 16.5879 11.0879 16.916ZM12.2402 4.55078C12.4551 4.95312 12.6445 5.39648 12.8066 5.875C12.084 6.16007 11.3219 6.33265 10.5469 6.38672V2.76563C10.7266 2.83789 10.9082 2.94336 11.0879 3.08594C11.502 3.41211 11.9004 3.91797 12.2402 4.55078ZM10.5469 12.5176V10.5469H13.4277C13.3965 11.4102 13.2891 12.248 13.1094 13.043L13.1035 13.0664C12.2839 12.7556 11.4219 12.5705 10.5469 12.5176ZM10.5469 9.45312V7.48242C11.4414 7.42773 12.3008 7.23828 13.1035 6.93359L13.1094 6.95703C13.2891 7.75195 13.3965 8.58789 13.4277 9.45312H10.5469ZM9.45312 10.5469V12.5176C8.55859 12.5723 7.69922 12.7617 6.89648 13.0664L6.89062 13.043C6.71094 12.248 6.60352 11.4121 6.57227 10.5469H9.45312ZM6.57227 9.45312C6.60352 8.58984 6.71094 7.75195 6.89062 6.95703L6.89648 6.93359C7.69922 7.23828 8.55664 7.42773 9.45312 7.48242V9.45312H6.57227ZM9.45312 13.6133V17.2344C9.27344 17.1621 9.0918 17.0566 8.91211 16.9141C8.49805 16.5879 8.09766 16.0801 7.75781 15.4473C7.54297 15.0449 7.35352 14.6016 7.19141 14.123C7.91797 13.8379 8.67383 13.668 9.45312 13.6133ZM9.45312 6.38672C8.67814 6.33265 7.91603 6.16007 7.19336 5.875C7.35547 5.39453 7.54297 4.95117 7.75977 4.55078C8.09961 3.91797 8.49805 3.41016 8.91406 3.08398C9.09375 2.94336 9.27344 2.83594 9.45508 2.76367V6.38672H9.45312ZM7.14258 3.23242C7.21484 3.20312 7.28516 3.17383 7.35742 3.14648C6.90039 3.75781 6.50781 4.52148 6.20117 5.40039C5.79102 5.16602 5.40234 4.89258 5.04102 4.58398C5.66211 4.01367 6.36719 3.56055 7.14258 3.23242ZM3.23242 7.14258C3.50195 6.50586 3.85742 5.91602 4.29102 5.38086C4.77734 5.80078 5.31055 6.16797 5.88281 6.47266C5.65625 7.38867 5.51562 8.39453 5.47852 9.45312H2.67578C2.73438 8.6543 2.92188 7.87891 3.23242 7.14258ZM2.67578 10.5469H5.47852C5.51562 11.6055 5.65625 12.6113 5.88281 13.5273C5.31324 13.8309 4.77934 14.1971 4.29102 14.6191C3.3485 13.459 2.7847 12.0376 2.67578 10.5469ZM7.14258 16.7676C6.36719 16.4395 5.66211 15.9863 5.04102 15.416C5.40234 15.1074 5.79102 14.8359 6.20117 14.5996C6.50781 15.4785 6.90039 16.2422 7.35742 16.8535C7.28516 16.8262 7.21289 16.7969 7.14258 16.7676ZM12.8574 16.7676C12.7852 16.7969 12.7148 16.8262 12.6426 16.8535C13.0996 16.2422 13.4922 15.4785 13.7988 14.5996C14.209 14.834 14.5977 15.1074 14.959 15.416C14.3413 15.984 13.6304 16.4412 12.8574 16.7676Z" fill="white"/>
</svg>
