<svg width="30" height="30" viewBox="0 0 30 30" fill="none" xmlns="http://www.w3.org/2000/svg">
<path d="M23.9834 10.3179L14.8819 15.6709L6.0072 10.4495C6.04944 9.78586 6.33801 9.16341 6.81437 8.7085C7.29073 8.25358 7.91918 8.00028 8.5722 8H21.4278C22.0589 7.99945 22.6682 8.23537 23.1396 8.66282C23.6109 9.09027 23.9111 9.67937 23.9834 10.3179ZM24 12.2347V20.3804C24 20.7244 23.9335 21.0651 23.8043 21.3829C23.6751 21.7008 23.4856 21.9896 23.2467 22.2328C23.0079 22.4761 22.7243 22.6691 22.4122 22.8007C22.1001 22.9323 21.7656 23 21.4278 23H8.5722C8.2344 23 7.8999 22.9323 7.58781 22.8007C7.27571 22.6691 6.99213 22.4761 6.75327 22.2328C6.51441 21.9896 6.32495 21.7008 6.1957 21.3829C6.06645 21.0651 5.99995 20.7244 6 20.3804V12.3733L14.4758 17.357C14.614 17.4377 14.7721 17.4759 14.9311 17.4668C15.0901 17.4578 15.2431 17.4019 15.3715 17.3061C15.383 17.3004 15.3941 17.2939 15.4046 17.2866L24 12.2347Z" fill="black"/>
</svg>
