<svg width="32" height="32" viewBox="0 0 32 32" fill="none" xmlns="http://www.w3.org/2000/svg">
<path fillRule="evenodd" clipRule="evenodd" d="M17.6683 27.545C17.8773 27.6846 18.123 27.7591 18.3743 27.7591C18.542 27.758 18.7077 27.7237 18.8619 27.6581C19.0162 27.5925 19.1559 27.4969 19.2729 27.3769L30.2732 16.3745L19.2729 5.3722C19.1549 5.2542 19.0148 5.16059 18.8606 5.09673C18.7065 5.03287 18.5412 5 18.3743 5C18.2075 5 18.0422 5.03287 17.888 5.09673C17.7339 5.16059 17.5938 5.2542 17.4758 5.3722C17.3578 5.4902 17.2642 5.63029 17.2003 5.78446C17.1365 5.93864 17.1036 6.10389 17.1036 6.27076C17.1036 6.43764 17.1365 6.60289 17.2003 6.75706C17.2642 6.91124 17.3578 7.05133 17.4758 7.16933L25.3065 15H4.09347C3.80346 15 3.52533 15.1054 3.32027 15.2929C3.1152 15.4804 3 15.7348 3 16C3 16.2652 3.1152 16.5196 3.32027 16.7071C3.52533 16.8946 3.80346 17 4.09347 17H26.0562L17.4758 25.5899C17.298 25.7676 17.177 25.994 17.1279 26.2405C17.0789 26.487 17.1041 26.7426 17.2002 26.9748C17.2964 27.207 17.4593 27.4054 17.6683 27.545Z" fill="white"/>
</svg>
